<?xml version="1.0" encoding="UTF-8" standalone="no"?>
<svg width="240" height="60" viewBox="0 0 240 60" fill="none" xmlns="http://www.w3.org/2000/svg">
  <path d="M20.8076 43.8462C16.3397 43.8462 12.569 42.4872 9.4955 39.7692C6.42199 37.0513 4.88524 33.3333 4.88524 28.6154C4.88524 23.8974 6.42199 20.1795 9.4955 17.4615C12.569 14.7436 16.3397 13.3846 20.8076 13.3846C23.5256 13.3846 25.9647 14.0064 28.1249 15.25C30.285 16.4936 31.9672 18.2628 33.1718 20.5577L26.6987 23.969C26.126 22.7885 25.3314 21.8942 24.315 21.2861C23.2985 20.678 22.1731 20.3739 20.9386 20.3739C18.8054 20.3739 17.1231 21.0994 15.8917 22.5503C14.6603 24.0013 14.0445 26.0256 14.0445 28.6231C14.0445 31.2205 14.6603 33.2449 15.8917 34.6959C17.1231 36.1468 18.8054 36.8722 20.9386 36.8722C22.1731 36.8722 23.2985 36.5755 24.315 35.982C25.3314 35.3885 26.126 34.5019 26.6987 33.3223L33.1718 36.7336C31.9672 39.0285 30.285 40.7977 28.1249 42.0414C25.9647 43.2849 23.5256 43.8986 20.8076 43.8462Z" fill="#0082C9"/>
  <path d="M52.6188 14.0385L63.1742 43.1923H53.5824L51.5358 36.9231H42.0858L40.0392 43.1923H30.4473L40.9951 14.0385H52.6188ZM49.0358 29.9077L46.8142 22.4885L44.5926 29.9077H49.0358Z" fill="#0082C9"/>
  <path d="M74.6119 14.0385C77.9933 14.0385 80.5832 14.8238 82.3816 16.3944C84.1801 17.965 85.0793 20.1333 85.0793 22.8994C85.0793 25.6655 84.1801 27.8338 82.3816 29.4044C80.5832 30.975 77.9933 31.7603 74.6119 31.7603H72.4895V43.1923H63.4203V14.0385H74.6119ZM74.1611 25.0192C75.2031 25.0192 76.0051 24.7378 76.5672 24.175C77.1292 23.6122 77.4102 22.8514 77.4102 21.8926C77.4102 20.9338 77.1292 20.1731 76.5672 19.6103C76.0051 19.0474 75.2031 18.766 74.1611 18.766H72.4895V25.0192H74.1611Z" fill="#0082C9"/>
  <path d="M87.9414 14.0385H96.9951V36.4564H107.578V43.1923H87.9414V14.0385Z" fill="#0082C9"/>
  <path d="M133.578 14.0385V43.1923H124.524V31.6986H114.976V43.1923H105.922V14.0385H114.976V24.6295H124.524V14.0385H133.578Z" fill="#0082C9"/>
  <path d="M152.938 14.0385L163.494 43.1923H153.902L151.855 36.9231H142.405L140.359 43.1923H130.767L141.315 14.0385H152.938ZM149.355 29.9077L147.134 22.4885L144.912 29.9077H149.355Z" fill="#0082C9"/>
  <path d="M179.937 14.0385V20.7744H171.952V43.1923H162.898V20.7744H154.913V14.0385H179.937Z" fill="#0082C9"/>
  <path d="M187.594 14.0385C191.214 14.0385 193.956 14.8468 195.819 16.4635C197.683 18.0801 198.614 20.3205 198.614 23.1846C198.614 26.0487 197.683 28.2891 195.819 29.9058C193.956 31.5224 191.214 32.3308 187.594 32.3308H185.471V43.1923H176.417V14.0385H187.594ZM187.142 25.5897C188.184 25.5897 188.986 25.3083 189.548 24.7455C190.11 24.1827 190.391 23.4219 190.391 22.4631C190.391 21.5044 190.11 20.7436 189.548 20.1808C188.986 19.618 188.184 19.3365 187.142 19.3365H185.471V25.5897H187.142Z" fill="#0082C9"/>
  <path d="M215.806 14.0385V43.1923H205.422L197.398 27.2051V43.1923H189.413V14.0385H199.798L207.822 30.0256V14.0385H215.806Z" fill="#0082C9"/>
  <path d="M223.79 14.0385H232.844V43.1923H223.79V14.0385Z" fill="#0082C9"/>
  <path d="M225.79 36.1923C225.79 36.1923 228.844 33.6154 231.298 36.1923C233.752 38.7692 236.298 36.1923 236.298 36.1923" stroke="#0082C9" stroke-width="2.5" stroke-linecap="round"/>
  <path d="M225.79 30.1923C225.79 30.1923 228.844 27.6154 231.298 30.1923C233.752 32.7692 236.298 30.1923 236.298 30.1923" stroke="#0082C9" stroke-width="2.5" stroke-linecap="round"/>
  <path d="M225.79 24.1923C225.79 24.1923 228.844 21.6154 231.298 24.1923C233.752 26.7692 236.298 24.1923 236.298 24.1923" stroke="#0082C9" stroke-width="2.5" stroke-linecap="round"/>
</svg>