<?xml version="1.0" encoding="UTF-8" standalone="no"?>
<svg width="64" height="64" viewBox="0 0 64 64" fill="none" xmlns="http://www.w3.org/2000/svg">
  <circle cx="32" cy="32" r="30" fill="#0082C9" />
  <path d="M32 4C16.536 4 4 16.536 4 32C4 47.464 16.536 60 32 60C47.464 60 60 47.464 60 32C60 16.536 47.464 4 32 4ZM32 56C18.745 56 8 45.255 8 32C8 18.745 18.745 8 32 8C45.255 8 56 18.745 56 32C56 45.255 45.255 56 32 56Z" fill="#F5F5F5"/>
  <path fill-rule="evenodd" clip-rule="evenodd" d="M46 24C46 26.209 44.209 28 42 28C39.791 28 38 26.209 38 24C38 21.791 39.791 20 42 20C44.209 20 46 21.791 46 24ZM42 26C43.105 26 44 25.105 44 24C44 22.895 43.105 22 42 22C40.895 22 40 22.895 40 24C40 25.105 40.895 26 42 26Z" fill="white"/>
  <path d="M18 24C18 24 22 16 32 16C42 16 46 24 46 24" stroke="white" stroke-width="3" stroke-linecap="round"/>
  <path d="M18 32C18 32 22 24 32 24C42 24 46 32 46 32" stroke="white" stroke-width="3" stroke-linecap="round"/>
  <path d="M18 40C18 40 22 32 32 32C42 32 46 40 46 40" stroke="white" stroke-width="3" stroke-linecap="round"/>
  <path d="M18 48C18 48 22 40 32 40C42 40 46 48 46 48" stroke="white" stroke-width="3" stroke-linecap="round"/>
  <path d="M32 48C32 48 36 44 36 40C36 36 32 32 32 32" stroke="white" stroke-width="2" stroke-linecap="round"/>
  <path d="M38 40C38 40 42 36 42 32C42 28 38 24 38 24" stroke="white" stroke-width="2" stroke-linecap="round"/>
  <path d="M26 40C26 40 22 36 22 32C22 28 26 24 26 24" stroke="white" stroke-width="2" stroke-linecap="round"/>
  <path d="M22 48L24 42" stroke="white" stroke-width="2" stroke-linecap="round"/>
  <path d="M42 48L40 42" stroke="white" stroke-width="2" stroke-linecap="round"/>
</svg>