<?xml version="1.0" encoding="UTF-8" standalone="no"?>
<svg width="48" height="48" viewBox="0 0 48 48" fill="none" xmlns="http://www.w3.org/2000/svg">
  <circle cx="24" cy="24" r="20" fill="#0082C9"/>
  <path d="M17 18C17 15.2386 19.2386 13 22 13H26C28.7614 13 31 15.2386 31 18V30C31 32.7614 28.7614 35 26 35H22C19.2386 35 17 32.7614 17 30V18Z" fill="white"/>
  <path d="M13 22C13 20.8954 13.8954 20 15 20V20C16.1046 20 17 20.8954 17 22V26C17 27.1046 16.1046 28 15 28V28C13.8954 28 13 27.1046 13 26V22Z" fill="white"/>
  <path d="M31 22C31 20.8954 31.8954 20 33 20V20C34.1046 20 35 20.8954 35 22V26C35 27.1046 34.1046 28 33 28V28C31.8954 28 31 27.1046 31 26V22Z" fill="white"/>
  <path d="M24 21L24 33" stroke="#0082C9" stroke-width="2" stroke-linecap="round"/>
  <path d="M20 29L28 29" stroke="#0082C9" stroke-width="2" stroke-linecap="round"/>
  <path fill-rule="evenodd" clip-rule="evenodd" d="M24 16C25.1046 16 26 15.1046 26 14C26 12.8954 25.1046 12 24 12C22.8954 12 22 12.8954 22 14C22 15.1046 22.8954 16 24 16Z" fill="#FFA500"/>
</svg>