<?xml version="1.0" encoding="UTF-8" standalone="no"?>
<svg
   xmlns:dc="http://purl.org/dc/elements/1.1/"
   xmlns:cc="http://creativecommons.org/ns#"
   xmlns:rdf="http://www.w3.org/1999/02/22-rdf-syntax-ns#"
   xmlns:svg="http://www.w3.org/2000/svg"
   xmlns="http://www.w3.org/2000/svg"
   xmlns:sodipodi="http://sodipodi.sourceforge.net/DTD/sodipodi-0.dtd"
   xmlns:inkscape="http://www.inkscape.org/namespaces/inkscape"
   width="32"
   height="32"
   viewBox="0 0 32 32"
   version="1.1">
  <g>
    <rect
       style="fill:#0082c9;fill-opacity:1;stroke:none;stroke-width:1.28774"
       id="rect14"
       width="32"
       height="32"
       x="0"
       y="0"
       rx="2"
       ry="2" />
    <path
       d="M 16,8 C 14.5,8 13.109375,8.609375 12.109375,9.609375 11.109375,10.609375 10.5,12 10.5,13.5 10.5,15 11.109375,16.390625 12.109375,17.390625 13.109375,18.390625 14.5,19 16,19 17.5,19 18.890625,18.390625 19.890625,17.390625 20.890625,16.390625 21.5,15 21.5,13.5 21.5,12 20.890625,10.609375 19.890625,9.609375 18.890625,8.609375 17.5,8 16,8 Z M 16,10 C 16.9,10 17.6875,10.3125 18.3125,10.9375 18.9375,11.5625 19.25,12.35 19.25,13.25 19.25,14.15 18.9375,14.9375 18.3125,15.5625 17.6875,16.1875 16.9,16.5 16,16.5 15.1,16.5 14.3125,16.1875 13.6875,15.5625 13.0625,14.9375 12.75,14.15 12.75,13.25 12.75,12.35 13.0625,11.5625 13.6875,10.9375 14.3125,10.3125 15.1,10 16,10 Z"
       style="fill:#ffffff;fill-opacity:1;stroke-width:1"
       id="path16" />
    <path
       d="m 18.25,22 c -0.9,0 -1.6875,0.3125 -2.3125,0.9375 -0.625,0.625 -0.9375,1.4125 -0.9375,2.3125 0,0.9 0.3125,1.6875 0.9375,2.3125 0.625,0.625 1.4125,0.9375 2.3125,0.9375 0.9,0 1.6875,-0.3125 2.3125,-0.9375 0.625,-0.625 0.9375,-1.4125 0.9375,-2.3125 0,-0.9 -0.3125,-1.6875 -0.9375,-2.3125 C 19.9375,22.3125 19.15,22 18.25,22 Z m 0,2 c 0.287521,0 0.539063,0.105469 0.75,0.316406 0.210937,0.210938 0.316406,0.46248 0.316406,0.75 0,0.287521 -0.105469,0.539063 -0.316406,0.75 -0.210937,0.210937 -0.462479,0.316406 -0.75,0.316406 -0.287521,0 -0.539063,-0.105469 -0.75,-0.316406 C 17.289063,25.605469 17.183594,25.353927 17.183594,25.066406 c 0,-0.287521 0.105469,-0.539062 0.316406,-0.75 0.210937,-0.210937 0.462479,-0.316406 0.75,-0.316406 z"
       style="fill:#ffffff;fill-opacity:1;stroke-width:1"
       id="path18" />
    <path
       d="m 9.6875,18 c -0.9,0 -1.6875,0.3125 -2.3125,0.9375 -0.625,0.625 -0.9375,1.4125 -0.9375,2.3125 0,0.9 0.3125,1.6875 0.9375,2.3125 0.625,0.625 1.4125,0.9375 2.3125,0.9375 0.9,0 1.6875,-0.3125 2.3125,-0.9375 0.625,-0.625 0.9375,-1.4125 0.9375,-2.3125 0,-0.9 -0.3125,-1.6875 -0.9375,-2.3125 C 11.375,18.3125 10.5875,18 9.6875,18 Z m 0,2 c 0.29,0 0.53125,0.10625 0.73125,0.30625 0.2,0.2 0.30625,0.44125 0.30625,0.73125 0,0.29 -0.10625,0.53125 -0.30625,0.73125 C 10.21875,21.97125 9.9775,22.0775 9.6875,22.0775 9.3975,22.0775 9.15625,21.97125 8.95625,21.77125 8.75625,21.57125 8.65,21.33 8.65,21.04 c 0,-0.29 0.10625,-0.53125 0.30625,-0.73125 0.2,-0.2 0.44125,-0.30625 0.73125,-0.30625 z"
       style="fill:#ffffff;fill-opacity:1;stroke-width:1"
       id="path20" />
    <path
       d="m 7.5,11.5 c 0.6041667,0 1.1197917,0.216146 1.5468751,0.648438 0.4270833,0.432292 0.6406249,0.953125 0.6406249,1.5625 0,0.614583 -0.2135416,1.135417 -0.6406249,1.5625 C 8.6197917,15.703125 8.1041667,15.921875 7.5,15.921875 6.8958333,15.921875 6.3802083,15.703125 5.953125,15.265625 5.5260417,14.828125 5.3125,14.305729 5.3125,13.710938 c 0,-0.595834 0.2135417,-1.119792 0.640625,-1.572266 C 6.3802083,11.686198 6.8958333,11.5 7.5,11.5 Z"
       style="fill:#ffffff;fill-opacity:1;stroke-width:1"
       id="path22" />
    <path
       d="m 24.572656,11.513672 c 0.604167,0 1.119792,0.216146 1.546875,0.648438 0.427084,0.432291 0.640625,0.953125 0.640625,1.5625 0,0.614583 -0.213541,1.135417 -0.640625,1.5625 -0.427083,0.427083 -0.942708,0.640625 -1.546875,0.640625 -0.604166,0 -1.119791,-0.213542 -1.546875,-0.640625 -0.427083,-0.427083 -0.640625,-0.947917 -0.640625,-1.5625 0,-0.614375 0.213542,-1.135209 0.640625,-1.5625 0.427084,-0.427292 0.942709,-0.648438 1.546875,-0.648438 z"
       style="fill:#ffffff;fill-opacity:1;stroke-width:1"
       id="path24" />
    <path
       d="m 17.25,10.875 0.75,1.125 h 2 l 0.5,0.75 h -3 l -0.75,-1.125 h -2 l -0.5,-0.75 z"
       style="fill:#ffffff;fill-opacity:1;stroke-width:1"
       id="path26" />
    <path
       d="m 11.25,14.625 0.75,1.125 h 2 l 0.5,0.75 h -3 l -0.75,-1.125 h -2 l -0.5,-0.75 z"
       style="fill:#ffffff;fill-opacity:1;stroke-width:1"
       id="path28" />
    <path
       d="m 18.25,22.625 0.75,1.125 h 2 l 0.5,0.75 h -3 l -0.75,-1.125 h -2 l -0.5,-0.75 z"
       style="fill:#ffffff;fill-opacity:1;stroke-width:1"
       id="path30" />
  </g>
</svg>