<?xml version="1.0" encoding="UTF-8" standalone="no"?>
<svg
   xmlns:dc="http://purl.org/dc/elements/1.1/"
   xmlns:cc="http://creativecommons.org/ns#"
   xmlns:rdf="http://www.w3.org/1999/02/22-rdf-syntax-ns#"
   xmlns:svg="http://www.w3.org/2000/svg"
   xmlns="http://www.w3.org/2000/svg"
   xmlns:sodipodi="http://sodipodi.sourceforge.net/DTD/sodipodi-0.dtd"
   xmlns:inkscape="http://www.inkscape.org/namespaces/inkscape"
   width="32"
   height="32"
   viewBox="0 0 32 32"
   version="1.1">
  <g>
    <path
       d="M 16,2 C 8.268,2 2,8.268 2,16 2,23.732 8.268,30 16,30 23.732,30 30,23.732 30,16 30,8.268 23.732,2 16,2 Z m 0,4 c 5.523,0 10,4.477 10,10 0,5.523 -4.477,10 -10,10 C 10.477,26 6,21.523 6,16 6,10.477 10.477,6 16,6 Z"
       style="fill:#0082c9;fill-opacity:1;stroke:none;stroke-width:0.2;stroke-miterlimit:4;stroke-dasharray:none" />
    <path
       d="m 16,9 c -3.866,0 -7,3.134 -7,7 0,3.866 3.134,7 7,7 3.866,0 7,-3.134 7,-7 0,-3.866 -3.134,-7 -7,-7 z m 0,2 c 2.761,0 5,2.239 5,5 0,2.761 -2.239,5 -5,5 -2.761,0 -5,-2.239 -5,-5 0,-2.761 2.239,-5 5,-5 z"
       style="fill:#0082c9;fill-opacity:1;stroke:none;stroke-width:0.2;stroke-miterlimit:4;stroke-dasharray:none" />
    <path
       d="M 15,12.5 V 16 h -3.5 v 2 H 15 v 3.5 h 2 V 18 h 3.5 v -2 H 17 v -3.5 z"
       style="fill:#0082c9;fill-opacity:1;stroke:none;stroke-width:0.2;stroke-miterlimit:4;stroke-dasharray:none" />
    <path
       d="m 19.414,8.586 c -3.905,-3.905 -10.237,-3.905 -14.142,0 -3.905,3.905 -3.905,10.237 0,14.142 3.905,3.905 10.237,3.905 14.142,0 3.905,-3.905 3.905,-10.237 0,-14.142 z M 6.343,21.657 C 3.79,19.104 3.055,15.384 4.586,12.243 L 12.243,4.586 C 15.384,3.055 19.104,3.79 21.657,6.343 c 2.553,2.553 3.288,6.273 1.757,9.414 L 15.757,23.414 C 12.616,24.945 8.896,24.21 6.343,21.657 Z"
       style="fill:#0082c9;fill-opacity:0.3;stroke:none;stroke-width:0.2;stroke-miterlimit:4;stroke-dasharray:none" />
  </g>
</svg>