<?xml version="1.0" encoding="UTF-8" standalone="no"?>
<svg width="32" height="32" viewBox="0 0 32 32" fill="none" xmlns="http://www.w3.org/2000/svg">
  <circle cx="16" cy="16" r="16" fill="#0082C9"/>
  <path d="M11 11C11 9.34315 12.3431 8 14 8H18C19.6569 8 21 9.34315 21 11V21C21 22.6569 19.6569 24 18 24H14C12.3431 24 11 22.6569 11 21V11Z" fill="white"/>
  <path d="M8 15C8 14.4477 8.44772 14 9 14V14C9.55228 14 10 14.4477 10 15V17C10 17.5523 9.55228 18 9 18V18C8.44772 18 8 17.5523 8 17V15Z" fill="white"/>
  <path d="M22 15C22 14.4477 22.4477 14 23 14V14C23.5523 14 24 14.4477 24 15V17C24 17.5523 23.5523 18 23 18V18C22.4477 18 22 17.5523 22 17V15Z" fill="white"/>
  <path d="M16 13V22" stroke="#0082C9" stroke-width="1.5" stroke-linecap="round"/>
  <path d="M13 19H19" stroke="#0082C9" stroke-width="1.5" stroke-linecap="round"/>
  <circle cx="16" cy="10" r="1.5" fill="#FFA500"/>
</svg>