<?xml version="1.0" encoding="UTF-8"?>
<svg width="128" height="128" viewBox="0 0 128 128" xmlns="http://www.w3.org/2000/svg">
  <defs>
    <linearGradient id="a" x1="4.494%" y1="13.186%" x2="77.802%" y2="87.9%">
      <stop stop-color="#0284C7" offset="0%"/>
      <stop stop-color="#38BDF8" offset="100%"/>
    </linearGradient>
  </defs>
  <g fill="none" fill-rule="evenodd">
    <rect fill="url(#a)" width="128" height="128" rx="16"/>
    <g fill="#FFF" fill-rule="nonzero">
      <path d="M40.848 86.211c-1.378-1.037-2.599-2.231-3.635-3.563l-.69.001c-2.82 0-5.11-2.29-5.11-5.11a5.103 5.103 0 0 1 5.11-5.109h11.264c1.412 0 2.555 1.144 2.555 2.555v2.555h5.11a2.552 2.552 0 0 1 2.554 2.554v5.11a2.552 2.552 0 0 1-2.555 2.554H42.344a2.552 2.552 0 0 1-1.496-.547z"/>
      <path d="M40.33 65.812a25.517 25.517 0 0 1-.717-6.033c0-14.16 11.48-25.64 25.64-25.64 14.158 0 25.639 11.48 25.639 25.64 0 1.885-.204 3.726-.59 5.5a7.673 7.673 0 0 1 5.7 7.394v2.555c0 .705-.095 1.386-.273 2.036a12.78 12.78 0 0 1 8.2 11.883v2.555a12.767 12.767 0 0 1-12.774 12.774H66.607A2.553 2.553 0 0 1 64.053 102v-2.555c0-1.173.79-2.16 1.867-2.462a5.087 5.087 0 0 1-1.867-3.93v-3.128a24.977 24.977 0 0 1-12.782-7.485 2.554 2.554 0 0 1-2.332-2.538V77.35a2.552 2.552 0 0 1 2.554-2.554h7.665c.094 0 .186.005.277.015a25.545 25.545 0 0 1-6.35-7.42h-5.147a7.653 7.653 0 0 1-7.61-6.763 7.674 7.674 0 0 1 5.171-8.371c-2.007-3.87-3.147-8.263-3.147-12.923 0-1.902 1.543-3.445 3.445-3.445 1.284 0 2.404.704 3 1.744a30.733 30.733 0 0 1 12.337-2.574c16.986 0 30.75 13.764 30.75 30.75 0 3.243-.501 6.368-1.43 9.3a5.102 5.102 0 0 1 3.985 4.963c0 2.82-2.29 5.11-5.11 5.11h-6.385c-.705 0-1.386-.095-2.036-.273a12.78 12.78 0 0 1-11.883 8.2h-2.555a12.767 12.767 0 0 1-12.774-12.774v-3.5c0-1.41 1.144-2.554 2.555-2.554h1.277c.705 0 1.386.095 2.036.273a12.78 12.78 0 0 1 11.883-8.2h2.555a12.767 12.767 0 0 1 12.774 12.773v3.5c0 1.411-1.144 2.555-2.555 2.555h-1.277c-.705 0-1.386-.095-2.036-.273a12.78 12.78 0 0 1-11.883 8.2h-2.555a12.797 12.797 0 0 1-8.944-3.63 7.65 7.65 0 0 1-6.72 3.953h-5.111v2.554c0 1.411-1.144 2.555-2.555 2.555h-5.109z"/>
      <path d="M51.125 49.32c1.695-1.695 4.442-1.695 6.137 0 1.695 1.694 1.695 4.442 0 6.136-1.695 1.695-4.442 1.695-6.137 0-1.695-1.694-1.695-4.442 0-6.136zM66.055 41.098c1.695-1.695 4.441-1.695 6.136 0 1.695 1.695 1.695 4.442 0 6.137-1.695 1.695-4.441 1.695-6.136 0-1.695-1.695-1.695-4.442 0-6.137z"/>
    </g>
  </g>
</svg>